<?xml version="1.0" encoding="utf-8"?>
<!-- Generator: Adobe Illustrator 25.2.0, SVG Export Plug-In . SVG Version: 6.00 Build 0)  -->
<svg version="1.1" id="Livello_1" xmlns="http://www.w3.org/2000/svg" xmlns:xlink="http://www.w3.org/1999/xlink" x="0px" y="0px"
	 viewBox="0 0 151.6 152.3" style="enable-background:new 0 0 151.6 152.3;" xml:space="preserve">
<style type="text/css">
	.st0{fill:#FFFFFF;}
	.st1{fill:none;}
	.st2{fill:#FF7800;}
	.st3{fill:#393D46;}
</style>
<g>
	<path class="st0" d="M152.2,76.1c0,42-34.1,76.1-76.1,76.1c-42,0-76.1-34.1-76.1-76.1C0,34.1,34.1,0,76.1,0
		C118.1,0,152.2,34.1,152.2,76.1"/>
	<path class="st1" d="M152.2,76.1c0,42-34.1,76.1-76.1,76.1c-42,0-76.1-34.1-76.1-76.1C0,34.1,34.1,0,76.1,0
		C118.1,0,152.2,34.1,152.2,76.1z"/>
	<path class="st2" d="M130.4,85.5c-4.5,26-27.1,45.7-54.3,45.7c-6.2,0-12.2-1.1-17.8-3l-7.7,15.4c7.9,3,16.6,4.7,25.5,4.7
		c36.9,0,67.3-27.7,71.6-63.5L130.4,85.5z"/>
	<path class="st3" d="M54.3,126.7C34.7,118.3,21,98.8,21,76.1C21,45.6,45.6,21,76.1,21s55.1,24.7,55.1,55.1c0,1.8-0.1,3.5-0.3,5.2
		l17.2-0.6c0.1-1.5,0.2-3,0.2-4.5c0-39.9-32.3-72.2-72.2-72.2S3.9,36.2,3.9,76.1c0,29.4,17.6,54.7,42.8,65.9L54.3,126.7z"/>
	<path class="st0" d="M33.7,130.9l-2.8-1.9l4.3-6.2c0.9-1.3,1.9-1.9,2.9-1.8c1.1,0.1,2.8,1,5.2,2.7c2.6,1.8,4.1,3.1,4.6,4
		c0.5,0.9,0.3,2.1-0.5,3.3l-4.3,6.3l-2.8-1.9l4.3-6.3c0.5-0.7,0.6-1.3,0.3-1.7c-0.3-0.5-1.1-1.2-2.5-2.1c-1.5-1-2.5-1.5-3-1.6
		c-0.5-0.1-1,0.3-1.5,1L33.7,130.9z"/>
	<path class="st0" d="M16.4,112l8.9-7l3.5,4.5l-1.8,7.8c-0.1,0.4-0.3,1-0.6,1.9l-0.3,1l-0.3,0.9l0.1,0.1l0.6-0.5l0.6-0.5l1.2-0.9
		l5.1-4l2.1,2.7l-8.9,7l-3.5-4.5l1.7-7.2c0.2-0.6,0.3-1.4,0.6-2.3l0.3-1.1l0.3-1.1l-0.1-0.1l-0.6,0.5l-0.6,0.5l-1.1,0.9l-5.2,4
		L16.4,112z"/>
	
		<rect x="13" y="101.6" transform="matrix(0.9035 -0.4286 0.4286 0.9035 -42.4758 17.9647)" class="st0" width="11.3" height="3.4"/>
	<path class="st0" d="M7.9,88.7L7,85.2L19.4,88l1.3,5l-9.6,8.3l-0.9-3.4l5.4-4.8c0.5-0.5,1.4-1.2,2.6-2.1l0-0.1l-0.8-0.1
		c-1-0.2-1.9-0.3-2.5-0.5L7.9,88.7z"/>
	<polygon class="st0" points="8.6,78.2 11.6,78.3 11.7,69.9 13.3,70 13.2,78.3 16.4,78.3 16.5,69.5 18.3,69.5 18.1,81.8 6.8,81.6 
		7,69.4 8.8,69.4 	"/>
	<path class="st0" d="M18.4,67.5l-10.9-3l2.3-8.5c0.6-2.1,1.2-3.5,1.9-4.2c0.7-0.7,1.6-0.8,2.8-0.5c1.1,0.3,1.8,0.7,2.1,1.2
		c0.3,0.5,0.4,1.4,0.2,2.7l0.1,0c0.6-1.9,1.6-2.6,2.9-2.3l2.4,0.7L21.3,57l-2-0.5c-1.1-0.3-1.9,0.4-2.4,2.1l-1.3,4.7l3.7,1
		L18.4,67.5z M13.9,62.8l1.3-4.7c0.3-1.1,0.4-1.9,0.2-2.3c-0.2-0.4-0.6-0.8-1.4-1c-0.8-0.2-1.3-0.2-1.6,0.1c-0.3,0.3-0.6,0.9-0.9,2
		l-1.3,4.9L13.9,62.8z"/>
	<path class="st0" d="M23.2,36.2L21.5,39c-0.1,0-0.2-0.1-0.2-0.1c-0.6-0.3-1-0.3-1.4-0.1c-0.3,0.2-0.8,0.9-1.5,2.1
		c-0.8,1.4-1.3,2.3-1.4,2.8c-0.1,0.5,0.1,0.9,0.6,1.2c0.6,0.4,1.1,0.4,1.4,0.2c0.3-0.3,1.1-1.3,2.3-3.2c1.5-2.2,2.5-3.6,3.3-4
		c0.7-0.5,1.6-0.4,2.7,0.3c1.3,0.8,1.9,1.7,1.8,2.7c-0.1,1-1,2.8-2.6,5.5c-1.4,2.4-2.6,3.9-3.4,4.4c-0.8,0.6-1.8,0.5-3-0.2l-0.4-0.2
		l1.7-2.8l0.2,0.1c0.7,0.4,1.2,0.5,1.6,0.2c0.4-0.3,1.1-1.2,2.1-2.9c0.8-1.3,1.2-2.2,1.2-2.6c0-0.5-0.3-0.9-0.9-1.3
		c-0.5-0.3-0.9-0.3-1.2-0.2c-0.3,0.2-0.8,0.7-1.3,1.6l-1,1.6c-1.5,2.4-2.7,3.8-3.4,4.2C18,48.8,17,48.7,15.9,48
		c-1.1-0.7-1.6-1.5-1.5-2.6c0.1-1,0.9-2.8,2.4-5.2c1.4-2.3,2.5-3.7,3.3-4.3c0.8-0.6,1.7-0.6,2.7,0L23.2,36.2z"/>
	<rect x="27.1" y="28" transform="matrix(0.6682 -0.744 0.744 0.6682 -15.4848 32.5863)" class="st0" width="3.4" height="11.3"/>
	<polygon class="st0" points="35.7,22.2 41.5,29.6 38.9,31.7 33.1,24.3 29,27.5 27.8,26 38.7,17.4 39.9,18.9 	"/>
	<path class="st0" d="M55.7,9.4l-3.2,9.1l1.7,4l-3.1,1.4l-1.7-4L40.7,16l3.6-1.6l3.7,1.6c0.2,0.1,0.6,0.3,1.1,0.5l0.5,0.3l0.5,0.3
		l0.1,0l0.2-0.6l0.2-0.6c0.1-0.5,0.2-0.9,0.3-1.2L52,11L55.7,9.4z"/>
	<path class="st0" d="M61.2,19.7L59.6,8.5l8.7-1.2c2-0.3,3.4-0.3,4.2,0c0.8,0.3,1.3,1,1.4,2.2c0.2,1.4-0.6,2.3-2.3,2.8l0,0
		c2-0.1,3.2,0.7,3.4,2.3c0.2,1.1-0.1,2-0.8,2.6c-0.7,0.6-2,1-4,1.3L61.2,19.7z M63.6,12.7l4.1-0.6c1.3-0.2,2.2-0.4,2.5-0.6
		c0.3-0.2,0.5-0.7,0.4-1.4c-0.1-0.9-1-1.2-2.6-1l-4.8,0.7L63.6,12.7z M64.3,17.5l3.7-0.5l1.2-0.2c1.1-0.2,1.9-0.4,2.2-0.6
		c0.3-0.3,0.4-0.7,0.4-1.4c-0.1-0.7-0.3-1.1-0.7-1.2c-0.4-0.1-1.3-0.1-2.8,0.1l-4.3,0.6L64.3,17.5z"/>
	<path class="st0" d="M86.4,7.5c3.2,0.5,5.2,1.1,6,1.9c0.8,0.8,1.1,2.4,0.7,4.7c-0.4,2.6-1.1,4.1-2.1,4.7c-1,0.5-3.3,0.5-6.9,0
		C81,18.4,79,17.8,78.1,17c-0.8-0.8-1.1-2.3-0.8-4.6c0.4-2.7,1.1-4.3,2.1-4.8C80.5,7,82.8,7,86.4,7.5 M85.9,9.3
		c-2.2-0.3-3.6-0.3-4,0c-0.4,0.3-0.8,1.6-1.1,3.7c-0.2,1.6-0.2,2.6,0.2,3c0.4,0.4,1.7,0.7,3.8,1.1c2.1,0.3,3.3,0.3,3.8,0
		c0.5-0.3,0.8-1.4,1.1-3.3c0.3-1.9,0.2-3-0.1-3.4C89.3,10,88,9.6,85.9,9.3"/>
	<path class="st0" d="M112.2,16.5l-7.1,2.8l2.7,7.7l-3.6-1.6l-1.2-3.5c-0.2-0.5-0.3-1.1-0.5-1.6l-0.1-0.6l-0.2-0.6l0,0l-0.5,0.2
		c-0.6,0.3-1.3,0.6-2.1,0.9l-3.5,1.4l-3.7-1.7l7.7-2.9l-2.6-7.2l3.7,1.7l1.1,3.3c0.2,0.5,0.3,1,0.5,1.5l0.1,0.5l0.1,0.5l0,0
		c0.2-0.1,0.4-0.2,0.5-0.2l0.5-0.2c0.4-0.2,0.9-0.4,1.4-0.6l3.2-1.3L112.2,16.5z"/>
	<rect x="109.1" y="26.5" transform="matrix(0.5782 -0.8159 0.8159 0.5782 23.5994 101.6365)" class="st0" width="2" height="3"/>
	<path class="st0" d="M123.5,36l2.4,2.4l-0.3,0.3c-1.1,1.1-2.2,1.5-3.1,1.2c-1-0.3-2.5-1.6-4.7-3.8c-2.4-2.5-3.7-4.3-3.7-5.4
		c0-1.1,1.1-2.7,3.4-5c1.3-1.3,2.6-1.8,3.8-1.4c1.2,0.4,3,1.8,5.4,4.3c1.8,1.8,2.8,3.2,3,4.2c0.2,0.9-0.1,1.9-1.2,2.9l-0.2,0.2
		l-2.4-2.4l0.2-0.2c0.5-0.5,0.7-1,0.6-1.5c-0.2-0.5-0.8-1.3-1.9-2.4c-1.5-1.5-2.5-2.3-3-2.4c-0.5-0.1-1.4,0.4-2.5,1.6
		c-1.6,1.5-2.3,2.5-2.4,3.1c0,0.5,0.7,1.6,2.1,3c1.2,1.2,2,1.9,2.5,2.1c0.5,0.2,1,0,1.6-0.5L123.5,36z"/>
	<path class="st0" d="M137.4,43.7c1.5,2.9,2.2,4.8,2,6c-0.2,1.1-1.3,2.3-3.4,3.4c-2.3,1.2-4,1.6-5,1.1c-1-0.5-2.4-2.3-4.1-5.5
		c-1.5-2.9-2.2-4.9-2.1-6c0.1-1.1,1.2-2.3,3.2-3.3c2.4-1.3,4.1-1.7,5.1-1.2C134.3,38.7,135.7,40.5,137.4,43.7 M135.6,44.4
		c-1.1-2-1.9-3.1-2.4-3.2c-0.5-0.2-1.7,0.3-3.7,1.3c-1.4,0.8-2.2,1.4-2.3,2c-0.1,0.6,0.4,1.8,1.4,3.7c1,1.8,1.7,2.9,2.3,3.1
		c0.5,0.2,1.6-0.2,3.3-1.1c1.7-0.9,2.6-1.6,2.7-2.1C137.1,47.5,136.7,46.3,135.6,44.4"/>
	<path class="st0" d="M146.1,76.2l-11.2,1.7l-0.5-3.3l6.1-0.9c0.5-0.1,1-0.1,1.7-0.2l0.8-0.1l0.8-0.1l0-0.1l-0.8-0.3l-0.8-0.3
		c-0.8-0.3-1.3-0.5-1.7-0.6l-6.9-2.9l-0.5-3l5.7-4.8c0.3-0.3,0.8-0.6,1.4-1.1l0.7-0.5l0.7-0.5l0-0.1l-0.8,0.2l-0.8,0.2
		c-0.6,0.1-1.2,0.3-1.6,0.3l-6.1,0.9l-0.5-3.3l11.2-1.7l0.8,5.4l-4.7,3.9c-0.3,0.3-0.8,0.6-1.4,1.1l-0.7,0.5l-0.7,0.5l0,0.1l0.8,0.3
		l0.8,0.3c0.7,0.2,1.3,0.4,1.7,0.6l5.7,2.3L146.1,76.2z"/>
	<path class="st3" d="M93.2,121.6H58.3L42,105.5V66h-4.6V39.9H73V66h-4.6v30.5h14.8V66h-4.6V39.9h35.6V66h-4.6v39.5L93.2,121.6z
		 M58.7,120.6h34l15.7-15.5V65h4.6V40.9H79.5V65h4.6v32.5H67.4V65H72V40.9H38.4V65H43V105L58.7,120.6z"/>
	<polygon class="st3" points="106.2,88.2 106.2,62.6 110.8,62.6 110.8,43.3 81.8,43.3 81.8,62.6 86.5,62.6 86.5,99.8 65,99.8 
		65,62.6 69.7,62.6 69.7,43.3 40.7,43.3 40.7,62.6 45.3,62.6 45.3,104.1 59.7,118.2 76.2,118.2 	"/>
	<path class="st3" d="M91.3,119l-3.8-3.8l2.9-2.9c0.7-0.7,1.2-1.1,1.6-1.2c0.4-0.1,0.8,0,1.2,0.4c0.5,0.5,0.4,1,0,1.7l0,0
		c0.7-0.6,1.4-0.6,1.9-0.1c0.4,0.4,0.5,0.8,0.4,1.2c-0.1,0.4-0.5,0.9-1.1,1.6L91.3,119z M90.2,115.7l1.4-1.4
		c0.4-0.4,0.7-0.8,0.8-0.9c0.1-0.2,0-0.4-0.2-0.6c-0.3-0.3-0.7-0.2-1.3,0.4l-1.6,1.6L90.2,115.7z M91.8,117.3l1.2-1.2l0.4-0.4
		c0.4-0.4,0.6-0.7,0.6-0.8c0.1-0.2,0-0.4-0.2-0.6c-0.2-0.2-0.4-0.3-0.6-0.2c-0.2,0.1-0.5,0.3-1,0.8l-1.4,1.4L91.8,117.3z"/>
	<path class="st3" d="M95.4,107.3c1.1-1.1,1.9-1.7,2.4-1.7c0.5-0.1,1.2,0.3,2,1.1c0.9,0.9,1.2,1.6,1.2,2.1c-0.1,0.5-0.7,1.4-1.9,2.6
		c-1.1,1.1-1.9,1.7-2.4,1.7c-0.5,0.1-1.2-0.2-1.9-1c-0.9-0.9-1.3-1.6-1.2-2.2C93.5,109.4,94.2,108.5,95.4,107.3 M95.9,108
		c-0.8,0.8-1.1,1.3-1.1,1.5c0,0.3,0.4,0.7,1.1,1.5c0.5,0.5,0.9,0.8,1.2,0.8c0.3,0,0.8-0.4,1.5-1.1c0.7-0.7,1-1.2,1.1-1.4
		c0-0.3-0.3-0.7-0.9-1.3c-0.6-0.6-1.1-0.9-1.3-0.9C97.1,106.9,96.6,107.3,95.9,108"/>
	<path class="st3" d="M103.5,99.2l0,3.6l3.8,0l-1.3,1.3l-1.8-0.1c-0.3,0-0.5,0-0.8-0.1l-0.3,0l-0.3,0l0,0l0,0.3c0,0.3,0,0.7,0.1,1.1
		l0.1,1.8l-1.3,1.3l0-3.9l-3.6,0l1.3-1.3l1.6,0.1c0.3,0,0.5,0,0.7,0l0.2,0l0.2,0l0,0c0-0.1,0-0.2,0-0.2l0-0.2c0-0.2,0-0.5,0-0.7
		l-0.1-1.6L103.5,99.2z"/>
</g>
</svg>
